<svg width="1200" height="630" viewBox="0 0 1200 630" xmlns="http://www.w3.org/2000/svg">
  <rect width="1200" height="630" fill="#fffdf5"/>
  <line x1="0" y1="157" x2="1200" y2="157" stroke="#f0ece0" stroke-width="1"/>
  <line x1="0" y1="314" x2="1200" y2="314" stroke="#f0ece0" stroke-width="1"/>
  <line x1="0" y1="472" x2="1200" y2="472" stroke="#f0ece0" stroke-width="1"/>
  <line x1="300" y1="0" x2="300" y2="630" stroke="#f0ece0" stroke-width="1"/>
  <line x1="600" y1="0" x2="600" y2="630" stroke="#f0ece0" stroke-width="1"/>
  <line x1="900" y1="0" x2="900" y2="630" stroke="#f0ece0" stroke-width="1"/>
  <rect x="0" y="0" width="6" height="630" fill="#BA7517"/>
  <polyline points="0,500 120,460 240,470 360,390 480,350 560,370 640,290 720,310 800,230 900,250 980,190 1060,210 1140,150 1200,130" fill="none" stroke="#BA7517" stroke-width="2" opacity="0.2"/>
  <polyline points="0,540 120,520 240,530 360,490 480,505 560,470 640,440 720,455 800,405 900,420 980,385 1060,400 1140,365 1200,335" fill="none" stroke="#EF9F27" stroke-width="1.5" opacity="0.2"/>
  <rect x="900" y="440" width="28" height="80" fill="#BA7517" opacity="0.25" rx="2"/>
  <rect x="940" y="400" width="28" height="120" fill="#BA7517" opacity="0.3" rx="2"/>
  <rect x="980" y="460" width="28" height="60" fill="#E24B4A" opacity="0.2" rx="2"/>
  <rect x="1020" y="380" width="28" height="140" fill="#BA7517" opacity="0.35" rx="2"/>
  <rect x="1060" y="420" width="28" height="100" fill="#BA7517" opacity="0.25" rx="2"/>
  <rect x="1100" y="360" width="28" height="160" fill="#EF9F27" opacity="0.3" rx="2"/>
  <rect x="1140" y="340" width="28" height="180" fill="#EF9F27" opacity="0.35" rx="2"/>
  <text x="80" y="240" font-family="-apple-system, BlinkMacSystemFont, 'Hiragino Sans', sans-serif" font-size="80" font-weight="700" fill="#1a1a18" letter-spacing="-2">デイトレ日誌</text>
  <rect x="80" y="268" width="320" height="3" fill="#BA7517" rx="2"/>
  <text x="80" y="340" font-family="-apple-system, BlinkMacSystemFont, 'Hiragino Sans', sans-serif" font-size="32" font-weight="400" fill="#854F0B">記録が、あなたのクセを暴く。</text>
  <text x="80" y="400" font-family="-apple-system, BlinkMacSystemFont, 'Hiragino Sans', sans-serif" font-size="22" font-weight="400" fill="#5f5e5a">保有時間 × 損益で、勝ちパターンが見えてくる。</text>
  <text x="80" y="570" font-family="-apple-system, BlinkMacSystemFont, 'Hiragino Sans', sans-serif" font-size="20" font-weight="400" fill="#888780" letter-spacing="1">sukosuzutsu.com</text>
  <rect x="1020" y="48" width="160" height="40" fill="#BA7517" rx="20"/>
  <text x="1100" y="73" font-family="-apple-system, BlinkMacSystemFont, 'Hiragino Sans', sans-serif" font-size="16" font-weight="500" fill="#ffffff" text-anchor="middle">無料ツール</text>
</svg>
